<?xml version="1.0" encoding="UTF-8"?>
<svg width="624px" height="113px" viewBox="0 0 624 113" version="1.1" xmlns="http://www.w3.org/2000/svg" xmlns:xlink="http://www.w3.org/1999/xlink">
    <!-- Generator: Sketch 61 (89581) - https://sketch.com -->
    <title>Artboard</title>
    <desc>Created with Sketch.</desc>
    <defs>
        <text id="text-1" font-family="NexaBold, Nexa Bold" font-size="102" font-weight="bold" letter-spacing="-2.142" fill="#FE99A0">
            <tspan x="160" y="105">feed farm</tspan>
        </text>
        <filter x="-1.1%" y="-2.4%" width="102.8%" height="108.9%" filterUnits="objectBoundingBox" id="filter-2">
            <feOffset dx="5" dy="5" in="SourceAlpha" result="shadowOffsetOuter1"></feOffset>
            <feColorMatrix values="0 0 0 0 0   0 0 0 0 0   0 0 0 0 0  0 0 0 1 0" type="matrix" in="shadowOffsetOuter1"></feColorMatrix>
        </filter>
    </defs>
    <g id="Artboard" stroke="none" stroke-width="1" fill="none" fill-rule="evenodd">
        <g id="pig" fill-rule="nonzero">
            <path d="M37,79 L37,110 L49,110 L49,87.7293567 C44.4466713,85.7149338 40.3670447,82.7217987 37,79 L37,79 Z" id="Path" fill="#FFC4C8"></path>
            <path d="M37,79 L37,110 L42,110 L42,83.8984302 C40.19375,82.4580019 38.51825,80.8159307 37,79 L37,79 Z" id="Path" fill="#FDB4BA"></path>
            <path d="M102.047929,91.5248987 L100,91.5248987 L100,111 L112,111 L112,90 C108.839642,90.9910978 105.499921,91.5248987 102.047929,91.5248987 L102.047929,91.5248987 Z" id="Path" fill="#FFC4C8"></path>
            <path d="M101.8925,91.1759496 L100,91.1759496 L100,111 L105,111 L105,91 C103.9765,91.114177 102.9405,91.1759496 101.8925,91.1759496 Z" id="Path" fill="#FDB4BA"></path>
            <path d="M101.510098,16 L68.6060576,16 L68.6060576,25.2679952 L68.629246,25.3218922 C69.880274,28.2203508 70.6815617,31.2842074 71.0102071,34.4284817 C71.1132666,35.4134557 71.5054653,36.3100273 72.1444343,37.021239 C74.9642571,40.1600951 76.4546122,43.7081689 76.4546122,47.2813375 C76.4546122,59.3354347 59.9413289,69.1418291 39.6437576,69.1418291 C35.9439211,69.1418291 32.3709049,68.8147402 29,68.2087559 C33.7610633,79.0491735 43.5517171,87.2474995 55.3889612,89.8311314 C56.708123,90.1191521 57.653694,91.2726611 57.653694,92.6180888 L57.653694,110 L70.3520575,110 L70.3520575,93.5417515 C70.3520575,91.9667626 71.6337171,90.6900606 73.2148218,90.6900606 L101.510098,90.6900606 C106.888087,90.6900606 112.010145,89.5456771 116.644674,87.4907487 C118.538679,86.6509257 120.672297,88.0280072 120.672297,90.0932018 L120.672297,110 L133.37066,110 L133.37066,75.2646946 C133.37066,73.8305792 133.733945,72.4207033 134.425016,71.1628224 C137.339024,65.8592478 139,59.7865722 139,53.3451729 C139,32.8052993 122.129444,16 101.510098,16 Z" id="Path" fill="#FE99A0"></path>
            <path d="M57.146423,102 L63,102 L63,87.4955803 C63,86.1426299 62.0329891,84.9821387 60.6846176,84.6924461 C51.3203579,82.6818075 43.2116904,77.2872155 37.7658151,69.8991943 C34.3815696,69.8492869 31.1082494,69.5377956 28,69 C32.9193461,79.7441527 42.8478906,87.8558317 54.8310407,90.4286459 C56.1797048,90.7183385 57.146423,91.8785429 57.146423,93.2317801 L57.146423,102 Z" id="Path" fill="#FD8087"></path>
            <path d="M69,26 L69,5.86509545 C69,4.16127143 67.5209179,2.83629769 65.8274718,3.01641623 C59.6870486,3.6695965 55.2160306,6.19039697 52,9.17337761 C59.6209364,12.3548036 65.740467,18.4164082 69,26 Z" id="Path" fill="#FDB4BA"></path>
            <g id="Group" transform="translate(10.000000, 3.000000)" fill="#FE99A0">
                <path d="M47.2269223,9.07648148 C50.1259417,6.76171605 53.9016553,4.86946914 58.7863398,4.17009877 L58.7863398,2.89004938 C58.7863398,1.20054321 57.3061845,-0.113296296 55.6115097,0.065308642 C49.4666311,0.713 44.9923689,3.21261728 41.7740049,6.17053086 C43.6943689,6.96502469 45.5187864,7.94124691 47.2269223,9.07648148 L47.2269223,9.07648148 Z" id="Path"></path>
                <path d="M17.2746845,6.17053086 C14.056034,3.21233333 9.58177184,0.713 3.43717961,0.065308642 C1.74250485,-0.113296296 0.262349515,1.20054321 0.262349515,2.89004938 L0.262349515,22.8557531 C3.52396117,15.3358889 9.64821845,9.32522222 17.2746845,6.17053086 Z" id="Path"></path>
                <path d="M17.2746845,6.17053086 C14.056034,3.21233333 9.58177184,0.713 3.43717961,0.065308642 C1.74250485,-0.113296296 0.262349515,1.20054321 0.262349515,2.89004938 L0.262349515,22.8557531 C3.52396117,15.3358889 9.64821845,9.32522222 17.2746845,6.17053086 Z" id="Path"></path>
            </g>
            <path d="M15.0079005,5.8653818 C15.0079005,4.94560319 15.3998187,4.13922194 16,3.61719317 C15.0138583,3.35174025 13.9735786,3.14613594 12.8713897,3.01641623 C11.3386867,2.83629769 10,4.16127143 10,5.86509545 L10,26 C11.241031,22.8094106 12.9421059,19.8897148 15.0079005,17.3391332 L15.0079005,5.8653818 Z" id="Path" fill="#FD8087"></path>
            <path d="M72.569221,37.0986422 C71.955724,36.4167592 71.5902304,35.5538275 71.4950226,34.6439786 C69.8084848,18.5484891 56.1283713,6 39.5,6 C22.8716287,6 9.19151522,18.5484891 7.50468804,34.6439786 C7.40919088,35.5541154 7.04369719,36.4170471 6.43048964,37.0986422 C3.60377358,40.2406577 2,43.8322727 2,47.6469604 C2,59.9922374 18.7892696,70 39.5,70 C60.2107304,70 77,59.9922374 77,47.6469604 C77,43.8319849 75.395937,40.2406577 72.569221,37.0986422 L72.569221,37.0986422 Z" id="Path" fill="#FFC4C8"></path>
            <path d="M10.7145969,47.6468599 C10.7145969,43.832155 12.3244735,40.2408117 15.1619463,37.0987821 C15.7777778,36.416896 16.1446623,35.5539605 16.2402324,34.6441074 C17.783297,19.9736269 29.3286855,8.25203735 44,6.29071546 C42.5745824,6.10016731 41.1204067,6 39.642411,6 C22.9507625,6 9.21859114,18.5485455 7.52563544,34.6441074 C7.42977487,35.5542483 7.06289034,36.4171839 6.44734931,37.0987821 C3.60987654,40.2405239 2,43.832155 2,47.6468599 C2,59.9921924 18.853159,70 39.6427015,70 C41.1166304,70 42.5702251,69.9479015 44,69.8500369 C25.2636166,68.567147 10.7145969,59.116592 10.7145969,47.6468599 L10.7145969,47.6468599 Z" id="Path" fill="#FDB4BA"></path>
            <path d="M45.8909472,58 L33.1090528,58 C28.6490738,58 25,54.3428376 25,49.8729725 L25,49.1270275 C25,44.6571624 28.6490738,41 33.1090528,41 L45.8909472,41 C50.3509262,41 54,44.6571624 54,49.1270275 L54,49.8729725 C54,54.3428376 50.3509262,58 45.8909472,58 Z" id="Path" fill="#FE99A0"></path>
            <path d="M30.4166667,49.8729725 L30.4166667,49.1270275 C30.4166667,44.6571624 33.8291667,41 38,41 L32.5833333,41 C28.4125,41 25,44.6571624 25,49.1270275 L25,49.8729725 C25,54.3428376 28.4125,58 32.5833333,58 L38,58 C33.8291667,58 30.4166667,54.3428376 30.4166667,49.8729725 L30.4166667,49.8729725 Z" id="Path" fill="#FD8087"></path>
            <polygon id="Path" fill="#FE99A0" points="37 101 49 101 49 110 37 110"></polygon>
            <polygon id="Path" fill="#FD8087" points="37 101 42 101 42 110 37 110"></polygon>
            <polygon id="Path" fill="#FE99A0" points="100 101 112 101 112 110 100 110"></polygon>
            <polygon id="Path" fill="#FD8087" points="100 101 105 101 105 110 100 110"></polygon>
            <polygon id="Path" fill="#FFC4C8" points="58 101 70 101 70 110 58 110"></polygon>
            <polygon id="Path" fill="#FDB4BA" points="58 101 63 101 63 110 58 110"></polygon>
            <polygon id="Path" fill="#FFC4C8" points="121 101 133 101 133 110 121 110"></polygon>
            <polygon id="Path" fill="#FDB4BA" points="121 101 126 101 126 110 121 110"></polygon>
            <path d="M93.1593941,17.7267272 L101.276413,17.7267272 C110.729089,17.7267272 119.643931,21.4059619 126.37865,28.0863919 C133.11308,34.7668219 136.821768,43.6101804 136.821768,52.987345 C136.821768,58.8477872 135.322572,64.663103 132.485704,69.8040923 C131.618492,71.375807 131.160124,73.1520188 131.160124,74.9407975 L131.160124,82.8579211 C131.160124,84.0409199 132.126669,85 133.319518,85 C134.512368,85 135.478912,84.0409199 135.478912,82.8579211 L135.478912,74.9407975 C135.478912,73.8689012 135.753875,72.8038596 136.274145,71.8607737 C139.457668,66.09087 141.140268,59.564384 141.140268,52.9870594 C141.140268,44.4415926 138.392943,36.5210417 133.729515,30.0476793 L133.870884,30.0476793 C141.110324,30.0476793 147,24.2052306 147,17.0238397 C147,9.84244878 141.110324,4 133.870884,4 L123.388897,4 C122.196047,4 121.229502,4.95908012 121.229502,6.14207889 C121.229502,7.32507766 122.196047,8.28415778 123.388897,8.28415778 L133.871172,8.28415778 C138.729233,8.28415778 142.6815,12.2047334 142.6815,17.0238397 C142.6815,21.8429459 138.729233,25.7635215 133.871172,25.7635215 L130.163636,25.7635215 C122.895979,18.1782774 112.633386,13.4422838 101.276413,13.4422838 L93.1593941,13.4422838 C91.9665448,13.4422838 91,14.4013639 91,15.5843626 C91,16.7673614 91.9665448,17.7267272 93.1593941,17.7267272 Z" id="Path" fill="#000000"></path>
            <path d="M23,49.1333442 L23,49.8666558 C23,55.4542674 27.5643847,60 33.1749236,60 L45.8250764,60 C51.4356153,60 56,55.4542674 56,49.8666558 L56,49.1333442 C56,43.5457326 51.4356153,39 45.8250764,39 L33.1749236,39 C27.5640981,39 23,43.546018 23,49.1333442 Z M27.2992635,49.1333442 C27.2992635,45.9066591 29.9349986,43.2816947 33.1749236,43.2816947 L45.8250764,43.2816947 C49.0650014,43.2816947 51.7007365,45.9066591 51.7007365,49.1333442 L51.7007365,49.8666558 C51.7007365,53.0933409 49.0650014,55.7183053 45.8250764,55.7183053 L33.1749236,55.7183053 C29.9349986,55.7183053 27.2992635,53.0933409 27.2992635,49.8666558 L27.2992635,49.1333442 Z" id="Shape" fill="#000000"></path>
            <path d="M34,53 C35.1048,53 36,52.0218875 36,50.8154128 L36,48.1845872 C36,46.9781125 35.1048,46 34,46 C32.8952,46 32,46.9781125 32,48.1845872 L32,50.8154128 C32,52.0218875 32.8954667,53 34,53 Z" id="Path" fill="#000000"></path>
            <path d="M44,53 C45.1048,53 46,52.0218875 46,50.8154128 L46,48.1845872 C46,46.9781125 45.1048,46 44,46 C42.8952,46 42,46.9781125 42,48.1845872 L42,50.8154128 C42,52.0218875 42.8952,53 44,53 Z" id="Path" fill="#000000"></path>
            <path d="M31,32.8881832 L31,28.1118168 C31,26.9455308 30.1048,26 29,26 C27.8952,26 27,26.9455308 27,28.1118168 L27,32.8881832 C27,34.0544692 27.8952,35 29,35 C30.1048,35 31,34.0544692 31,32.8881832 Z" id="Path" fill="#000000"></path>
            <path d="M52,32.8881832 L52,28.1118168 C52,26.9455308 51.1048,26 50,26 C48.8952,26 48,26.9455308 48,28.1118168 L48,32.8881832 C48,34.0544692 48.8952,35 50,35 C51.1048,35 52,34.0544692 52,32.8881832 Z" id="Path" fill="#000000"></path>
            <path d="M144.84668,108.683476 L135.511318,108.683476 L135.511318,93.9818558 C135.511318,92.7898403 134.547492,91.8234501 133.357998,91.8234501 C132.168504,91.8234501 131.204678,92.7898403 131.204678,93.9818558 L131.204678,99.9396311 L122.776295,99.9396311 L122.776295,90.7525931 C122.776295,89.0411213 121.92157,87.4628951 120.49033,86.5313272 C119.057941,85.5986081 117.26925,85.4575923 115.707949,86.1546134 C111.18368,88.1731544 106.371152,89.1968143 101.404734,89.1968143 L73.027418,89.1968143 C70.2570996,89.1968143 68.0030039,91.4562334 68.0030039,94.2330942 L68.0030039,99.9399189 L59.574334,99.9399189 L59.574334,93.3009508 C59.574334,90.9163442 57.9444141,88.8929108 55.610502,88.3800736 C45.7870547,86.2225313 37.6044375,79.9832999 32.6931445,71.7042312 C34.8754629,71.9321589 37.1014219,72.0553319 39.3586758,72.0553319 C47.4230039,72.0553319 55.1634727,70.5691976 61.7437324,67.7578023 C62.8376191,67.2901477 63.346377,66.0224441 62.8801113,64.925974 C62.4135586,63.8295039 61.1502773,63.3192568 60.054668,63.7869114 C54.004125,66.3721058 46.8473496,67.7388083 39.3586758,67.7388083 C29.8051113,67.7388083 20.8553379,65.5231329 14.1576504,61.4998647 C7.80506836,57.6835157 4.30664063,52.7286796 4.30664063,47.5476426 C4.30664063,44.3641381 5.60092969,41.3000654 8.15304492,38.4406095 C9.05743945,37.4278856 9.61184766,36.1590308 9.75655078,34.7704565 C10.5148066,27.4790743 13.9299727,20.738805 19.3735664,15.7914514 C24.8550586,10.8095633 31.9524023,8.06608574 39.3581016,8.06608574 C46.7638008,8.06608574 53.8611445,10.8095633 59.3423496,15.7914514 C64.7859434,20.738805 68.2011094,27.4790743 68.9596523,34.7710321 C69.1040684,36.1590308 69.6584766,37.4278856 70.562584,38.4403217 C73.1152734,41.2997776 74.4092754,44.3638503 74.4092754,47.5476426 C74.4092754,51.5277427 72.3331875,55.4030881 68.4052441,58.7549483 C67.4997012,59.5276575 67.3905996,60.8897554 68.1612012,61.7977247 C68.9320898,62.7054062 70.2909785,62.8147655 71.1965215,62.0420562 C76.1158535,57.8446766 78.7156289,52.8325708 78.7156289,47.5476426 C78.7156289,43.3298301 77.0058926,39.1854034 73.7713184,35.5618719 C73.4753086,35.230053 73.2921328,34.8015375 73.2424629,34.3232348 C72.9005156,31.0352635 72.085125,27.8465788 70.8442383,24.8417903 L70.8442383,18.1374945 L82.9746094,18.1374945 C84.1641035,18.1374945 85.1279297,17.1711043 85.1279297,15.9790888 C85.1279297,14.7870733 84.1641035,13.8206831 82.9746094,13.8206831 L70.8453867,13.8206831 L70.8453867,5.03741088 C70.8453867,3.61171198 70.2387246,2.2473118 69.1804395,1.29358427 C68.1210059,0.33841781 66.698666,-0.122905433 65.2817812,0.0281829655 C59.9093906,0.600879941 55.1422266,2.59898803 51.2088281,5.87832574 C47.4522891,4.48198115 43.4468262,3.74956216 39.3583887,3.74956216 C35.2699512,3.74956216 31.2642012,4.48226894 27.5076621,5.87832574 C23.5745508,2.59898803 18.8070996,0.600592154 13.4349961,0.0281829655 C12.0192598,-0.122329858 10.5957715,0.338130022 9.53633789,1.29358427 C8.47805273,2.24702401 7.87139062,3.61171198 7.87139062,5.03741088 L7.87139062,24.840927 C6.6302168,27.8457155 5.81482617,31.0346879 5.47287891,34.3226592 C5.42320898,34.8018253 5.2400332,35.230053 4.94402344,35.5618719 C1.70973633,39.1854034 0,43.3298301 0,47.5476426 C0,54.3057547 4.2414668,60.5757793 11.94375,65.2022499 C16.3546113,67.8519088 21.6245039,69.7812357 27.3595137,70.9067723 C28.7066309,73.7066561 30.3784688,76.3594806 32.3612461,78.7941622 C32.8496191,79.3939112 33.355793,79.9772563 33.8763223,80.5456365 L33.8763223,108.683189 L23.3043809,108.683189 C22.1148867,108.683189 21.1510605,109.649579 21.1510605,110.841594 C21.1510605,112.03361 22.1148867,113 23.3043809,113 L144.84668,113 C146.036174,113 147,112.03361 147,110.841594 C147,109.649579 146.036174,108.683476 144.84668,108.683476 Z M65.7371367,4.3208202 C66.0190781,4.29060252 66.2108672,4.42240916 66.3010195,4.50356521 C66.3897363,4.58357012 66.5387461,4.75940823 66.5387461,5.03741088 L66.5387461,17.30694 C65.2631191,15.6179156 63.8252754,14.0385382 62.2355508,12.5935575 C60.2249238,10.7661074 58.0236563,9.20342165 55.6825664,7.92104088 C58.3147852,6.13388097 61.6151074,4.75998381 65.7371367,4.3208202 Z M12.1780313,5.03741088 C12.1780313,4.75940823 12.327041,4.58357012 12.4157578,4.50356521 C12.4967227,4.43046721 12.6612363,4.31650338 12.8986758,4.31650338 C12.9248027,4.31650338 12.9520781,4.31794232 12.9796406,4.3208202 C16.7798203,4.7257371 20.1481875,5.9295519 23.0611992,7.90636372 C20.7100605,9.19133458 18.4996055,10.7589127 16.4812266,12.5935575 C14.891502,14.0385382 13.4539453,15.6176278 12.1783184,17.3066522 L12.1783184,5.03741088 L12.1780313,5.03741088 Z M46.6113457,108.683476 L38.1826758,108.683476 L38.1826758,104.256155 L46.6110586,104.256155 L46.6110586,108.683476 L46.6113457,108.683476 Z M46.6113457,99.9393433 L38.1826758,99.9393433 L38.1826758,84.6043026 C40.7680957,86.7039996 43.6027266,88.4738923 46.6110586,89.8676468 L46.6110586,99.9393433 L46.6113457,99.9393433 Z M55.2674063,108.683476 L50.9179863,108.683476 L50.9179863,91.565017 C52.1554277,91.9705095 53.4132539,92.31643 54.6885938,92.5964471 C55.0296797,92.6712719 55.2676934,92.960786 55.2676934,93.3003752 L55.2676934,108.683476 L55.2674063,108.683476 Z M68.0030039,108.683476 L59.574334,108.683476 L59.574334,104.256155 L68.0030039,104.256155 L68.0030039,108.683476 Z M97.0779961,108.683476 L72.3093574,108.683476 L72.3093574,94.2325187 C72.3093574,93.8359476 72.631207,93.5130501 73.0271309,93.5130501 L97.0779961,93.5130501 L97.0779961,108.683476 Z M109.813307,108.683476 L101.384924,108.683476 L101.384924,104.256155 L109.813307,104.256155 L109.813307,108.683476 Z M109.813307,99.9393433 L101.384924,99.9393433 L101.384924,93.5130501 L101.404734,93.5130501 C104.25975,93.5130501 107.069115,93.2094344 109.813307,92.6108365 L109.813307,99.9393433 Z M118.469654,108.683476 L114.119947,108.683476 L114.119947,91.4075973 C115.246852,91.0222499 116.361123,90.5876909 117.459316,90.0978767 C117.770543,89.9591632 118.022338,90.0716881 118.144934,90.1511174 C118.266381,90.2299711 118.469941,90.4132917 118.469941,90.7523053 L118.469941,108.683476 L118.469654,108.683476 Z M131.204678,108.683476 L122.776295,108.683476 L122.776295,104.256155 L131.204678,104.256155 L131.204678,108.683476 Z" id="Shape" fill="#000000"></path>
        </g>
        <g id="feed-farm" stroke="#000000">
            <use fill="#FE99A0" fill-opacity="1" stroke-opacity="1" filter="url(#filter-2)" xlink:href="#text-1"></use>
            <use fill="#FE99A0" fill-opacity="1" stroke-opacity="1" xlink:href="#text-1"></use>
            <use xlink:href="#text-1"></use>
        </g>
    </g>
</svg>