<?xml version="1.0" encoding="UTF-8"?>
<svg width="442px" height="83px" viewBox="0 0 442 83" version="1.1" xmlns="http://www.w3.org/2000/svg" xmlns:xlink="http://www.w3.org/1999/xlink">
    <!-- Generator: Sketch 61 (89581) - https://sketch.com -->
    <title>feedfarm-logo-shadow</title>
    <desc>Created with Sketch.</desc>
    <defs>
        <text id="text-1" font-family="NexaBold, Nexa Bold" font-size="102" font-weight="bold" letter-spacing="-2.142" fill="#FE99A0">
            <tspan x="122" y="75">f</tspan>
            <tspan x="160.964" y="75" font-size="62" letter-spacing="-1.302">eed</tspan>
            <tspan x="267.666" y="75"> </tspan>
            <tspan x="286.128" y="75">f</tspan>
            <tspan x="325.092" y="75" font-size="62" letter-spacing="-1.302">arm</tspan>
        </text>
        <filter x="-1.6%" y="-2.4%" width="104.1%" height="108.9%" filterUnits="objectBoundingBox" id="filter-2">
            <feOffset dx="5" dy="5" in="SourceAlpha" result="shadowOffsetOuter1"></feOffset>
            <feColorMatrix values="0 0 0 0 0   0 0 0 0 0   0 0 0 0 0  0 0 0 1 0" type="matrix" in="shadowOffsetOuter1"></feColorMatrix>
        </filter>
    </defs>
    <g id="feedfarm-logo-shadow" stroke="none" stroke-width="1" fill="none" fill-rule="evenodd">
        <g id="pig" transform="translate(2.000000, 3.000000)" fill-rule="nonzero">
            <path d="M26,56 L26,78 L34,78 L34,62.1950273 C30.9644476,60.7654369 28.2446964,58.6412765 26,56 L26,56 Z" id="Path" fill="#FFC4C8"></path>
            <path d="M26,56 L26,78 L30,78 L30,59.4763053 C28.555,58.4540658 27.2146,57.288725 26,56 L26,56 Z" id="Path" fill="#FDB4BA"></path>
            <path d="M72.3652862,65.0892133 L71,65.0892133 L71,79 L79,79 L79,64 C76.8930947,64.707927 74.6666141,65.0892133 72.3652862,65.0892133 L72.3652862,65.0892133 Z" id="Path" fill="#FFC4C8"></path>
            <path d="M72.514,65.1231648 L71,65.1231648 L71,79 L75,79 L75,65 C74.1812,65.0799239 73.3524,65.1231648 72.514,65.1231648 Z" id="Path" fill="#FDB4BA"></path>
            <path d="M71.4162511,11 L48.0842954,11 L48.0842954,17.6059115 L48.1007381,17.6443274 C48.9878306,19.71025 49.5560165,21.8940627 49.7890559,24.1351944 C49.8621345,24.8372504 50.140239,25.4762961 50.5933261,25.9832236 C52.5928368,28.2204933 53.6496341,30.7494395 53.6496341,33.2962725 C53.6496341,41.8880226 41.9402151,48.8776867 27.5473918,48.8776867 C24.9238713,48.8776867 22.3902781,48.6445489 20,48.2126239 C23.3760267,55.9393045 30.3184903,61.7827922 38.7121725,63.624317 C39.6475781,63.8296084 40.3180739,64.6517903 40.3180739,65.6107654 L40.3180739,78 L49.3223681,78 L49.3223681,66.2691207 C49.3223681,65.1465223 50.2311812,64.2365326 51.3523282,64.2365326 L71.4162511,64.2365326 C75.2297342,64.2365326 78.8617389,63.420855 82.1480413,61.9561719 C83.491063,61.3575747 85.0039923,62.3391115 85.0039923,63.8111119 L85.0039923,78 L94.0082864,78 L94.0082864,53.2418568 C94.0082864,52.2196682 94.2658883,51.2147566 94.7559207,50.318182 C96.8222171,46.5379745 98,42.209578 98,37.6183679 C98,22.9782452 86.037242,11 71.4162511,11 Z" id="Path" fill="#FE99A0"></path>
            <path d="M40.8188736,72 L45,72 L45,61.890859 C45,60.9478936 44.3092779,60.1390663 43.3461555,59.9371594 C36.6573985,58.5358052 30.8654932,54.775938 26.9755822,49.6267112 C24.558264,49.5919272 22.2201781,49.3748273 20,49 C23.5138186,56.4883488 30.6056362,62.1419433 39.1650291,63.9351169 C40.1283606,64.1370238 40.8188736,64.9456511 40.8188736,65.8888165 L40.8188736,72 Z" id="Path" fill="#FD8087"></path>
            <path d="M49,18 L49,3.99310988 C49,2.80784099 47.955942,1.88612013 46.7605684,2.01141999 C42.426152,2.46580626 39.2701392,4.21940659 37,6.29452356 C42.3794845,8.50768949 46.6991532,12.7244578 49,18 Z" id="Path" fill="#FDB4BA"></path>
            <g id="Group" transform="translate(7.000000, 2.000000)" fill="#FE99A0">
                <path d="M33.619165,6.31407407 C35.6828738,4.70380247 38.3706699,3.38745679 41.8479029,2.90093827 L41.8479029,2.01046914 C41.8479029,0.835160494 40.794233,-0.0788148148 39.5878544,0.0454320988 C35.213534,0.496 32.028466,2.2348642 29.7374272,4.29254321 C31.104466,4.84523457 32.4032039,5.52434568 33.619165,6.31407407 L33.619165,6.31407407 Z" id="Path"></path>
                <path d="M12.297233,4.29254321 C10.0059903,2.23466667 6.82092233,0.496 2.44680583,0.0454320988 C1.24042718,-0.0788148148 0.186757282,0.835160494 0.186757282,2.01046914 L0.186757282,15.8996543 C2.50858252,10.6684444 6.8682233,6.48711111 12.297233,4.29254321 Z" id="Path"></path>
                <path d="M12.297233,4.29254321 C10.0059903,2.23466667 6.82092233,0.496 2.44680583,0.0454320988 C1.24042718,-0.0788148148 0.186757282,0.835160494 0.186757282,2.01046914 L0.186757282,15.8996543 C2.50858252,10.6684444 6.8682233,6.48711111 12.297233,4.29254321 Z" id="Path"></path>
            </g>
            <path d="M10.3386004,3.99330908 C10.3386004,3.35346309 10.5998791,2.79250222 11,2.42935177 C10.3425722,2.24468887 9.64905237,2.10165979 8.91425981,2.01141999 C7.8924578,1.88612013 7,2.80784099 7,3.99310988 L7,18 C7.82735397,15.7804595 8.96140396,13.7493668 10.3386004,11.9750492 L10.3386004,3.99330908 Z" id="Path" fill="#FD8087"></path>
            <path d="M50.8689162,25.8662328 C50.4353783,25.3867838 50.1770961,24.780035 50.109816,24.1402975 C48.9179959,12.8231564 39.2507157,4 27.5,4 C15.7492843,4 6.08200409,12.8231564 4.88997955,24.1402975 C4.82249489,24.7802374 4.56421268,25.3869862 4.13087935,25.8662328 C2.13333333,28.0754624 1,30.6008167 1,33.283019 C1,41.9632919 12.8644172,49 27.5,49 C42.1355828,49 54,41.9632919 54,33.283019 C54,30.6006143 52.8664622,28.0754624 50.8689162,25.8662328 L50.8689162,25.8662328 Z" id="Path" fill="#FFC4C8"></path>
            <path d="M7.22471211,33.2829484 C7.22471211,30.600734 8.37462392,28.0755707 10.4013902,25.8663312 C10.8412698,25.38688 11.1033302,24.7801284 11.1715946,24.140388 C12.2737836,13.8252064 20.5204897,5.58346376 31,4.2044093 C29.9818446,4.07043014 28.9431476,4 27.8874365,4 C15.9648304,4 6.15613653,12.8231961 4.94688246,24.140388 C4.87841062,24.7803308 4.61635024,25.3870824 4.17667808,25.8663312 C2.14991182,28.0753683 1,30.600734 1,33.2829484 C1,41.9632603 13.0379707,49 27.8876439,49 C28.9404503,49 29.9787322,48.9633682 31,48.8945572 C17.616869,47.9925252 7.22471211,41.3476038 7.22471211,33.2829484 L7.22471211,33.2829484 Z" id="Path" fill="#FDB4BA"></path>
            <path d="M32.1279273,41 L22.8720727,41 C19.6424327,41 17,38.4184736 17,35.2632747 L17,34.7367253 C17,31.5815264 19.6424327,29 22.8720727,29 L32.1279273,29 C35.3575673,29 38,31.5815264 38,34.7367253 L38,35.2632747 C38,38.4184736 35.3575673,41 32.1279273,41 Z" id="Path" fill="#FE99A0"></path>
            <path d="M21.75,35.2632747 L21.75,34.7367253 C21.75,31.5815264 24.1125,29 27,29 L23.25,29 C20.3625,29 18,31.5815264 18,34.7367253 L18,35.2632747 C18,38.4184736 20.3625,41 23.25,41 L27,41 C24.1125,41 21.75,38.4184736 21.75,35.2632747 L21.75,35.2632747 Z" id="Path" fill="#FD8087"></path>
            <polygon id="Path" fill="#FE99A0" points="26 72 34 72 34 78 26 78"></polygon>
            <polygon id="Path" fill="#FD8087" points="26 72 30 72 30 78 26 78"></polygon>
            <polygon id="Path" fill="#FE99A0" points="71 72 79 72 79 78 71 78"></polygon>
            <polygon id="Path" fill="#FD8087" points="71 72 75 72 75 78 71 78"></polygon>
            <polygon id="Path" fill="#FFC4C8" points="41 72 49 72 49 78 41 78"></polygon>
            <polygon id="Path" fill="#FDB4BA" points="41 72 45 72 45 78 41 78"></polygon>
            <polygon id="Path" fill="#FFC4C8" points="86 72 94 72 94 78 86 78"></polygon>
            <polygon id="Path" fill="#FDB4BA" points="85 72 89 72 89 78 85 78"></polygon>
            <path d="M65.5424244,12.6595487 L71.3402948,12.6595487 C78.0922061,12.6595487 84.459951,15.2486398 89.2704641,19.9496832 C94.0807716,24.6507265 96.7298341,30.8738307 96.7298341,37.4725761 C96.7298341,41.596591 95.6589803,45.6888503 93.6326459,49.3065835 C93.0132083,50.4126049 92.685803,51.6625318 92.685803,52.921302 L92.685803,58.4926112 C92.685803,59.3250918 93.3761922,60 94.2282274,60 C95.0802626,60 95.7706518,59.3250918 95.7706518,58.4926112 L95.7706518,52.921302 C95.7706518,52.1670046 95.9670538,51.4175308 96.3386753,50.7538778 C98.6126201,46.6935752 99.8144772,42.1008628 99.8144772,37.4723751 C99.8144772,31.4588985 97.8521021,25.8851775 94.5210824,21.3298484 L94.6220598,21.3298484 C99.7930889,21.3298484 104,17.2184956 104,12.1649242 C104,7.11135284 99.7930889,3 94.6220598,3 L87.1349261,3 C86.2828909,3 85.5925018,3.67490823 85.5925018,4.50738885 C85.5925018,5.33986947 86.2828909,6.0147777 87.1349261,6.0147777 L94.6222654,6.0147777 C98.092309,6.0147777 100.915357,8.77370127 100.915357,12.1649242 C100.915357,15.5561471 98.092309,18.3150707 94.6222654,18.3150707 L91.9740256,18.3150707 C86.7828421,12.9773063 79.4524188,9.64457005 71.3402948,9.64457005 L65.5424244,9.64457005 C64.6903892,9.64457005 64,10.3194783 64,11.1519589 C64,11.9844395 64.6903892,12.6595487 65.5424244,12.6595487 Z" id="Path" fill="#000000"></path>
            <path d="M16,35.238103 L16,35.761897 C16,39.7530482 19.1812378,43 23.0916134,43 L31.9083866,43 C35.8187622,43 39,39.7530482 39,35.761897 L39,35.238103 C39,31.2469518 35.8187622,28 31.9083866,28 L23.0916134,28 C19.1810381,28 16,31.2471557 16,35.238103 Z M18.9964564,35.238103 C18.9964564,32.9333279 20.8334839,31.0583534 23.0916134,31.0583534 L31.9083866,31.0583534 C34.1665161,31.0583534 36.0035436,32.9333279 36.0035436,35.238103 L36.0035436,35.761897 C36.0035436,38.0666721 34.1665161,39.9416466 31.9083866,39.9416466 L23.0916134,39.9416466 C20.8334839,39.9416466 18.9964564,38.0666721 18.9964564,35.761897 L18.9964564,35.238103 Z" id="Shape" fill="#000000"></path>
            <path d="M24.5,38 C25.3286,38 26,37.3013482 26,36.4395806 L26,34.5604194 C26,33.6986518 25.3286,33 24.5,33 C23.6714,33 23,33.6986518 23,34.5604194 L23,36.4395806 C23,37.3013482 23.6716,38 24.5,38 Z" id="Path" fill="#000000"></path>
            <path d="M31.5,38 C32.3286,38 33,37.3013482 33,36.4395806 L33,34.5604194 C33,33.6986518 32.3286,33 31.5,33 C30.6714,33 30,33.6986518 30,34.5604194 L30,36.4395806 C30,37.3013482 30.6714,38 31.5,38 Z" id="Path" fill="#000000"></path>
            <path d="M22,23.5921221 L22,20.4078779 C22,19.6303538 21.3286,19 20.5,19 C19.6714,19 19,19.6303538 19,20.4078779 L19,23.5921221 C19,24.3696462 19.6714,25 20.5,25 C21.3286,25 22,24.3696462 22,23.5921221 Z" id="Path" fill="#000000"></path>
            <path d="M37,23.5921221 L37,20.4078779 C37,19.6303538 36.3286,19 35.5,19 C34.6714,19 34,19.6303538 34,20.4078779 L34,23.5921221 C34,24.3696462 34.6714,25 35.5,25 C36.3286,25 37,24.3696462 37,23.5921221 Z" id="Path" fill="#000000"></path>
            <path d="M102.476562,76.9440541 L95.8719531,76.9440541 L95.8719531,66.5358271 C95.8719531,65.6919223 95.1900625,65.0077523 94.3485156,65.0077523 C93.5069688,65.0077523 92.8250781,65.6919223 92.8250781,66.5358271 L92.8250781,70.7537211 L86.8621406,70.7537211 L86.8621406,64.2496234 C86.8621406,63.037962 86.2574375,61.9206337 85.2448594,61.2611166 C84.2314688,60.6007845 82.966,60.5009503 81.8614063,60.9944166 C78.6605625,62.4234722 75.2557813,63.1481871 71.742125,63.1481871 L51.6656563,63.1481871 C49.7057031,63.1481871 48.1109688,64.7477758 48.1109688,66.713695 L48.1109688,70.7539249 L42.1478281,70.7539249 L42.1478281,66.0537705 C42.1478281,64.3655534 40.9946875,62.9330342 39.3434844,62.5699636 C32.3935625,61.0425 26.6045,56.625345 23.1298438,50.7640575 C24.6737969,50.9254222 26.248625,51.0126244 27.8455938,51.0126244 C33.5509688,51.0126244 39.0272188,49.9604939 43.6826406,47.9701255 C44.4565469,47.6390426 44.8164844,46.7415534 44.4866094,45.9652913 C44.1565313,45.1890293 43.2627813,44.8277924 42.4876563,45.1588753 C38.207,46.9891015 33.1437031,47.9566785 27.8455938,47.9566785 C21.0866094,47.9566785 14.7547969,46.3880587 10.0162969,43.5397272 C5.52195313,40.8378872 3.046875,37.3300386 3.046875,33.6620478 C3.046875,31.4082393 3.9625625,29.2389843 5.76814063,27.2145908 C6.40798438,26.4976181 6.80021875,25.5993138 6.90259375,24.6162524 C7.43904688,19.4542119 9.85521875,14.6823398 13.7064688,11.1797886 C17.5845313,7.65278815 22.6057813,5.71050318 27.8451875,5.71050318 C33.0845938,5.71050318 38.1058438,7.65278815 41.9837031,11.1797886 C45.8349531,14.6823398 48.251125,19.4542119 48.7877813,24.6166599 C48.8899531,25.5993138 49.2821875,26.4976181 49.9218281,27.2143871 C51.7278125,29.2387806 52.6432969,31.4080356 52.6432969,33.6620478 C52.6432969,36.4798178 51.1745,39.2234252 48.3955469,41.5964236 C47.7548906,42.1434743 47.6777031,43.1077914 48.2228906,43.7506016 C48.7682813,44.393208 49.7296719,44.4706304 50.3703281,43.9235796 C53.8506719,40.9519835 55.6899688,37.40359 55.6899688,33.6620478 C55.6899688,30.6759859 54.4803594,27.7418785 52.1919531,25.1765465 C51.9825313,24.9416304 51.8529375,24.6382567 51.8177969,24.2996353 C51.575875,21.971868 50.999,19.7143921 50.1210938,17.5871082 L50.1210938,12.840704 L58.703125,12.840704 C59.5446719,12.840704 60.2265625,12.156534 60.2265625,11.3126292 C60.2265625,10.4687244 59.5446719,9.7845544 58.703125,9.7845544 L50.1219063,9.7845544 L50.1219063,3.56630859 C50.1219063,2.55696423 49.6927031,1.5910172 48.9439844,0.915811875 C48.1944531,0.23958783 47.1881719,-0.0870126957 46.18575,0.0199525419 C42.384875,0.425401728 39.0121875,1.83999153 36.229375,4.16164654 C33.5716875,3.173084 30.7378906,2.65455728 27.8453906,2.65455728 C24.9528906,2.65455728 22.1188906,3.17328775 19.4612031,4.16164654 C16.6785938,1.83999153 13.3057031,0.425197985 9.50503125,0.0199525419 C8.50342188,-0.086605209 7.49632812,0.239384086 6.74679687,0.915811875 C5.99807812,1.59081346 5.568875,2.55696423 5.568875,3.56630859 L5.568875,17.586497 C4.69076562,19.7137809 4.11389062,21.9714605 3.87196875,24.2992278 C3.83682812,24.6384604 3.70723437,24.9416304 3.4978125,25.1765465 C1.20960937,27.7418785 0,30.6759859 0,33.6620478 C0,38.446552 3.00076563,42.8855075 8.45,46.1608849 C11.5706094,48.0367496 15.2989688,49.4026447 19.3563906,50.1994848 C20.3094531,52.1817035 21.49225,54.0598093 22.8950312,55.7834777 C23.2405469,56.2080788 23.5986562,56.6210664 23.9669219,57.0234595 L23.9669219,76.9438504 L16.4874531,76.9438504 C15.6459062,76.9438504 14.9640156,77.6280204 14.9640156,78.4719252 C14.9640156,79.31583 15.6459062,80 16.4874531,80 L102.476562,80 C103.318109,80 104,79.31583 104,78.4719252 C104,77.6280204 103.318109,76.9440541 102.476562,76.9440541 Z M46.5079063,3.05898775 C46.707375,3.0375947 46.8430625,3.13090914 46.9068438,3.18836475 C46.9696094,3.24500539 47.0750313,3.36949255 47.0750313,3.56630859 L47.0750313,12.2527009 C46.1725469,11.0569314 45.1552969,9.93878809 44.0305938,8.91579293 C42.6081094,7.62202291 41.05075,6.51569674 39.3944688,5.60781655 C41.2567188,4.3425706 43.5916406,3.36990004 46.5079063,3.05898775 Z M8.61575,3.56630859 C8.61575,3.36949255 8.72117188,3.24500539 8.7839375,3.18836475 C8.84121875,3.13661395 8.95760938,3.0559316 9.12559375,3.0559316 C9.14407813,3.0559316 9.163375,3.05695032 9.182875,3.05898775 C11.8714375,3.34565459 14.2545,4.19791285 16.3154063,5.59742565 C14.6520156,6.50713952 13.0881563,7.61692933 11.6601875,8.91579293 C10.5354844,9.93878809 9.5184375,11.0567276 8.61595313,12.2524971 L8.61595313,3.56630859 L8.61575,3.56630859 Z M32.9767344,76.9440541 L27.0135937,76.9440541 L27.0135937,73.809667 L32.9765313,73.809667 L32.9765313,76.9440541 L32.9767344,76.9440541 Z M32.9767344,70.7535174 L27.0135937,70.7535174 L27.0135937,59.8968514 C28.8427344,61.3833626 30.8481875,62.6363839 32.9765313,63.6231128 L32.9765313,70.7535174 L32.9767344,70.7535174 Z M39.10075,76.9440541 L36.0236094,76.9440541 L36.0236094,64.8247908 C36.8990781,65.1118651 37.7889687,65.3567646 38.69125,65.5550068 C38.9325625,65.6079801 39.1009531,65.8129459 39.1009531,66.053363 L39.1009531,76.9440541 L39.10075,76.9440541 Z M48.1109687,76.9440541 L42.1478281,76.9440541 L42.1478281,73.809667 L48.1109687,73.809667 L48.1109687,76.9440541 Z M68.6810312,76.9440541 L51.1576406,76.9440541 L51.1576406,66.7132875 C51.1576406,66.4325293 51.3853437,66.2039293 51.6654531,66.2039293 L68.6810312,66.2039293 L68.6810312,76.9440541 Z M77.6910469,76.9440541 L71.7281094,76.9440541 L71.7281094,73.809667 L77.6910469,73.809667 L77.6910469,76.9440541 Z M77.6910469,70.7535174 L71.7281094,70.7535174 L71.7281094,66.2039293 L71.742125,66.2039293 C73.762,66.2039293 75.7495781,65.9889801 77.6910469,65.565194 L77.6910469,70.7535174 Z M83.8152656,76.9440541 L80.7379219,76.9440541 L80.7379219,64.7133432 C81.5351875,64.4405309 82.3235156,64.1328785 83.1004687,63.7861074 C83.3206563,63.6879031 83.4987969,63.7675668 83.5855313,63.8237999 C83.6714531,63.8796256 83.8154687,64.0094101 83.8154687,64.2494197 L83.8154687,76.9440541 L83.8152656,76.9440541 Z M92.8250781,76.9440541 L86.8621406,76.9440541 L86.8621406,73.809667 L92.8250781,73.809667 L92.8250781,76.9440541 Z" id="Shape" fill="#000000"></path>
        </g>
        <g id="feed-farm" stroke="#000000">
            <use fill="#FE99A0" fill-opacity="1" stroke-opacity="1" filter="url(#filter-2)" xlink:href="#text-1"></use>
            <use fill="#FE99A0" fill-opacity="1" stroke-opacity="1" xlink:href="#text-1"></use>
            <use xlink:href="#text-1"></use>
        </g>
    </g>
</svg>